<svg xmlns="http://www.w3.org/2000/svg" viewBox="0 0 64 64"><path d="M30.4 3.523c-2.005.28-4.186 1.119-5.789 2.227-.89.615-2.208 1.901-2.907 2.837-2.074 2.773-2.951 6.937-2.236 10.613.361 1.86 1.421 4.508 2.594 6.48l.332.56h-3.709l-.036-1.769-.036-1.77-.299-.257-.299-.257H13.08c-2.98 0-5.173.044-5.538.111-2.167.401-3.767 2.142-4.024 4.38-.145 1.257-.138 29.052.008 29.962a4.708 4.708 0 0 0 2.61 3.53l.744.363 7.775.03c7.321.027 7.788.018 7.985-.16.116-.104.666-.854 1.224-1.665.558-.812 1.051-1.436 1.096-1.387.044.049.546.773 1.115 1.609.67.985 1.115 1.539 1.266 1.576.128.031 7.144.043 15.592.027 15.026-.029 15.37-.034 15.787-.239.605-.298 1.382-1.132 1.615-1.732.189-.488.199-1.166.228-14.645.021-9.516-.006-14.372-.082-14.862-.062-.401-.203-.905-.314-1.12-.283-.548-.925-1.137-1.554-1.426l-.533-.246-7.752-.031-7.752-.031.478-.876c2.114-3.87 2.916-6.977 2.606-10.084-.594-5.937-4.479-10.331-10.247-11.589-.945-.206-3.984-.303-5.013-.159m3.464 1.815c1.464.168 2.555.483 3.843 1.11 2.457 1.197 4.126 2.934 5.182 5.392 1.193 2.775 1.246 6.131.146 9.173-.89 2.464-3.305 6.514-5.563 9.333-1.634 2.039-3.731 4.073-4.736 4.593-.304.157-.335.149-.925-.242-.795-.526-2.707-2.375-3.783-3.657-1.9-2.264-3.728-5.038-5.096-7.733-1.329-2.618-1.812-4.437-1.811-6.827.001-2.109.355-3.65 1.236-5.373 2.074-4.057 6.608-6.33 11.507-5.769m-3.037 4.636c-1.82.496-3.469 1.845-4.244 3.474-.53 1.114-.701 1.828-.701 2.925 0 1.098.171 1.812.701 2.925.796 1.673 2.433 2.997 4.297 3.477.827.212 2.384.211 3.2-.004a6.643 6.643 0 0 0 4.809-4.915c.249-1.062.164-2.621-.201-3.657a6.605 6.605 0 0 0-4.024-4.032c-1.002-.355-2.894-.449-3.837-.193m3.33 1.862c1.351.511 2.526 1.746 2.935 3.084.238.782.238 2.125 0 2.906-.265.867-.965 1.853-1.699 2.394-2.553 1.879-5.947 1.026-7.315-1.84-.385-.807-.398-.871-.398-2.015 0-1.175.002-1.186.454-2.097.669-1.35 1.742-2.231 3.173-2.604.747-.195 2.096-.114 2.85.172M16.853 37.387v13.386h-4.628c-4.317 0-4.675.015-5.307.212a5.42 5.42 0 0 0-1.158.532l-.48.321-.029-2.479c-.016-1.363-.016-7.111 0-12.772l.029-10.294.284-.533c.255-.479.654-.926 1.182-1.324.528-.399.885-.427 5.547-.431l4.56-.005v13.387m7.438-8.183c2.293 3.398 5.345 6.536 7.344 7.55.917.466 1.051.444 2.296-.374 2.075-1.362 4.509-3.954 6.687-7.122l.822-1.196 5.947-.004c3.43-.003 5.946.036 5.946.091 0 .052-.098.414-.219.804-.245.793-.213 1.024.187 1.338.615.483 1.198.13 1.523-.921.119-.385.216-.838.216-1.008v-.309l1.36.001c1.161 0 1.41.031 1.701.208.72.439.672-.648.672 15.174 0 13.691-.008 14.344-.195 14.699-.421.798.558.745-13.554.745H32.395l.075-1.333c.073-1.325.072-1.335-.193-1.6-.34-.339-.811-.348-1.19-.022-.267.229-.292.328-.374 1.467-.048.672-.09 1.281-.094 1.355-.004.099-.328.132-1.259.129l-1.253-.005-1.12-1.671c-1.407-2.099-1.641-2.373-2.029-2.373-.165 0-.377.029-.471.065-.094.036-.772.948-1.507 2.027l-1.336 1.961-6.956-.001c-4.404 0-7.099-.04-7.347-.109-.676-.188-1.375-.746-1.732-1.383-.3-.535-.329-.672-.329-1.547 0-.835.039-1.039.298-1.566.322-.657.785-1.123 1.492-1.5.445-.238.504-.241 5.754-.294l5.304-.053.242-.243.243-.243.029-11.944.028-11.944 2.425.004 2.425.005.771 1.142m27.227 1.982c-.204.138-.827.502-1.385.807-.557.306-1.097.654-1.2.773-.425.496-.019 1.367.638 1.367.168 0 .807-.281 1.453-.641 1.896-1.054 2.202-1.368 1.974-2.024-.205-.587-.85-.71-1.48-.282m-4.767 3.108c-.327.23-1.521 1.836-1.755 2.363-.147.331-.172.512-.097.71.198.522.918.782 1.309.473.093-.073.3-.349.461-.613.161-.264.544-.794.85-1.176.675-.842.756-1.062.544-1.473-.244-.472-.855-.604-1.312-.284M27.278 37.2c-.272.302-.336.743-.149 1.028.091.139.876.747 1.745 1.351.869.604 1.684 1.179 1.813 1.277.23.176.207.197-1.633 1.485-1.782 1.247-2.067 1.522-2.067 1.994 0 .254.596.785.88.785.158 0 1.059-.562 2.329-1.45 1.139-.798 2.127-1.474 2.196-1.502.069-.028 1.029.585 2.133 1.361 1.105.777 2.128 1.458 2.275 1.512.389.145.834-.064 1.006-.473.259-.615.1-.797-1.917-2.209-1.024-.717-1.862-1.318-1.862-1.337 0-.018.835-.616 1.857-1.329 2.011-1.405 2.186-1.606 1.929-2.218-.075-.178-.217-.354-.317-.392-.535-.206-.814-.072-2.892 1.381-1.15.804-2.14 1.426-2.221 1.394-.081-.031-1.046-.684-2.144-1.45-1.693-1.182-2.058-1.395-2.395-1.395-.243 0-.463.073-.566.187m16.945 1.867c-.226.202-.311.466-.539 1.676-.149.791-.271 1.586-.271 1.768 0 .452.38.796.879.796.597 0 .756-.297 1.08-2.011.344-1.819.345-1.882.02-2.208-.333-.332-.811-.341-1.169-.021m-1.406 5.245c-.119.084-.353.349-.52.589-.167.241-.635.658-1.041.928-.825.548-1.017.864-.82 1.341.252.607.831.668 1.688.177 1.033-.593 2.035-1.756 2.036-2.365 0-.632-.816-1.039-1.343-.67m7.103 1.992c-.798.156-1.819.727-2.481 1.388-1.105 1.103-1.628 2.694-1.377 4.188a5 5 0 0 0 4.073 4.128c3.422.611 6.469-2.673 5.595-6.03-.676-2.597-3.189-4.186-5.81-3.674m-13.081 1.26c-1.153.547-2.159 1.241-2.287 1.578-.189.497.12 1.035.664 1.155.252.055.442-.015.975-.36a17.727 17.727 0 0 1 1.587-.874c.692-.333.956-.52 1.047-.738.248-.599-.146-1.181-.795-1.175-.178.001-.714.188-1.191.414m15.575.757c.65.33 1.279 1.033 1.498 1.677.092.271.168.817.168 1.212 0 2.239-2.374 3.773-4.399 2.842-.802-.369-1.196-.742-1.568-1.487-.272-.545-.326-.777-.325-1.409.001-1.294.593-2.261 1.736-2.837.607-.306.735-.331 1.516-.298.646.027.98.1 1.374.3m-19.555 2.552c-.342.367-1.015 1.614-1.286 2.383-.246.697-.125 1.102.393 1.319.62.259.851.06 1.529-1.319.324-.657.648-1.255.72-1.327.072-.072.132-.311.132-.529 0-.793-.931-1.123-1.488-.527" fill="currentColor" fill-rule="evenodd"/></svg>