<svg xmlns="http://www.w3.org/2000/svg" width="64" height="64"><path d="M0 0 C0.33 0.99 0.66 1.98 1 3 C2.65 3.33 4.3 3.66 6 4 C6.33 3.01 6.66 2.02 7 1 C7.99 1.33 8.98 1.66 10 2 C10.6875 4.0625 10.6875 4.0625 11 6 C11.99 5.938125 12.98 5.87625 14 5.8125 C17.60610707 5.79819005 20.18654561 6.88809787 23.5078125 8.27734375 C26.80769013 9.23420482 29.9459323 9.33786098 33.375 9.5 C48.37868366 10.26366055 48.37868366 10.26366055 52.69140625 14.765625 C57.29445777 22.62516372 57.14192947 35.43973172 55.6171875 44.19921875 C54.6991678 47.55800513 53.35890785 50.79686008 52 54 C50.35 54 48.7 54 47 54 C47.185625 52.989375 47.37125 51.97875 47.5625 50.9375 C47.99768247 47.02085773 47.70853021 43.85755337 47 40 C45.35 43.63 43.7 47.26 42 51 C40.35 51 38.7 51 37 51 C37.46443268 48.83264747 37.93550065 47.1100283 39.0625 45.1875 C40.41299026 42.03635607 40.24634422 39.38723309 40 36 C39.34 35.01 38.68 34.02 38 33 C37.21882813 33.24556641 37.21882813 33.24556641 36.421875 33.49609375 C33.3243125 34.14058659 30.41158906 34.09411589 27.25 34.0625 C26.07953125 34.05347656 24.9090625 34.04445312 23.703125 34.03515625 C22.81109375 34.02355469 21.9190625 34.01195312 21 34 C21.34933594 34.69867188 21.69867187 35.39734375 22.05859375 36.1171875 C24.52929688 41.05859375 24.52929688 41.05859375 27 46 C26.0625 48.625 26.0625 48.625 25 51 C23.35 51 21.7 51 20 51 C20.3403125 49.9171875 20.3403125 49.9171875 20.6875 48.8125 C21.08398299 45.24415308 20.04377787 43.86128901 18 41 C18.020625 42.2375 18.04125 43.475 18.0625 44.75 C18.06766681 47.6640825 17.93015558 50.20953327 17 53 C15.35 53 13.7 53 12 53 C12 46.73 12 40.46 12 34 C10.68 33.34 9.36 32.68 8 32 C7.34 32.66 6.68 33.32 6 34 C1.125 29.375 1.125 29.375 0 26 C-2.49759982 24.30117552 -2.49759982 24.30117552 -5 23 C-4.67 19.7 -4.34 16.4 -4 13 C-4.99 12.67 -5.98 12.34 -7 12 C-7.6875 9.9375 -7.6875 9.9375 -8 8 C-7.01 7.67 -6.02 7.34 -5 7 C-4.87625 6.030625 -4.7525 5.06125 -4.625 4.0625 C-4.41875 3.051875 -4.2125 2.04125 -4 1 C-2 0 -2 0 0 0 Z M2 6 C2 6.66 2 7.32 2 8 C3.32 7.34 4.64 6.68 6 6 C4.68 6 3.36 6 2 6 Z M-1 9 C-2.84670417 13.20961305 -3.18085487 16.38820072 -3 21 C-0.419053 21.5161894 2.15012816 22.02388403 4.75 22.4375 C5.4925 22.623125 6.235 22.80875 7 23 C7.33 23.66 7.66 24.32 8 25 C6.68 24.67 5.36 24.34 4 24 C5.0975223 26.99324263 5.67682892 27.84610901 8.625 29.25 C9.40875 29.4975 10.1925 29.745 11 30 C11 29.34 11 28.68 11 28 C11.66 28.33 12.32 28.66 13 29 C13.6328125 31.72265625 13.6328125 31.72265625 14.125 35.0625 C14.29257812 36.16722656 14.46015625 37.27195312 14.6328125 38.41015625 C14.75398438 39.26480469 14.87515625 40.11945312 15 41 C15.33 41 15.66 41 16 41 C16.66 37.04 17.32 33.08 18 29 C18.66 29 19.32 29 20 29 C20 29.66 20 30.32 20 31 C29.0575556 33.79928392 34.69439214 32.31949588 43 28 C48.23701376 35.23893033 49.96934727 41.08005472 50 50 C50.33 50 50.66 50 51 50 C51.22307542 47.7722603 51.42788178 45.54268636 51.625 43.3125 C51.74101563 42.07113281 51.85703125 40.82976563 51.9765625 39.55078125 C52.00041342 35.93736672 51.3182005 34.27552852 50 31 C49.86239278 28.19006055 49.80988427 25.48998076 49.875 22.6875 C49.88402344 21.94693359 49.89304688 21.20636719 49.90234375 20.44335938 C49.92575787 18.62876533 49.96162385 16.81433929 50 15 C45.07631193 12.61028643 41.6353851 11.64014273 36.0625 11.8125 C34.91910156 11.83957031 33.77570312 11.86664063 32.59765625 11.89453125 C31.74042969 11.92933594 30.88320313 11.96414062 30 12 C30.66 13.32 31.32 14.64 32 16 C31.01 16 30.02 16 29 16 C29 16.66 29 17.32 29 18 C23.66935891 16.9096416 23.66935891 16.9096416 21.78125 14.34375 C20.82577416 12.57756739 19.91102617 10.78951569 19 9 C13.44298809 6.22149405 4.96255457 8.39619701 -1 9 Z M53 28 C53 30.31 53 32.62 53 35 C53.33 35 53.66 35 54 35 C54 32.69 54 30.38 54 28 C53.67 28 53.34 28 53 28 Z M40 30 C40.99 33.96 41.98 37.92 43 42 C43.99 40.68 44.98 39.36 46 38 C45.3007918 35.08663251 44.33508269 32.67016539 43 30 C42.01 30 41.02 30 40 30 Z M18 34 C19 37 19 37 19 37 Z M19 37 C20 39 20 39 20 39 Z M15 44 C15 45.65 15 47.3 15 49 C15.33 49 15.66 49 16 49 C16 47.35 16 45.7 16 44 C15.67 44 15.34 44 15 44 Z M23 44 C24 46 24 46 24 46 Z M41 45 C42 47 42 47 42 47 Z " fill="#6B6565" transform="translate(8,5)"></path><path d="M0 0 C1.32 0.66 2.64 1.32 4 2 C3.34 3.32 2.68 4.64 2 6 C0.35 6 -1.3 6 -3 6 C-2.42655063 3.13275314 -2.1385485 2.1385485 0 0 Z " fill="#686060" transform="translate(48,50)"></path><path d="M0 0 C1.98 0.495 1.98 0.495 4 1 C4 2.32 4 3.64 4 5 C2.68 5.33 1.36 5.66 0 6 C-1.125 2.25 -1.125 2.25 0 0 Z " fill="#6D6767" transform="translate(13,15)"></path><path d="M0 0 C0.99 0 1.98 0 3 0 C3 0.99 3 1.98 3 3 C2.01 3 1.02 3 0 3 C0 2.01 0 1.02 0 0 Z " fill="#706A6A" transform="translate(7,16)"></path></svg>